<svg width="218" height="49" viewBox="0 0 218 49" fill="none" xmlns="http://www.w3.org/2000/svg">
<rect width="218" height="49" rx="20" fill="#606060"/>
<path d="M53.6795 17.54H65.4595V20.1H53.6795V17.54ZM51.8195 30.38H68.7995V32.96H51.8195V30.38ZM64.1795 17.54H67.3795V19.12C67.3795 21.36 67.3995 24.06 66.4795 28.28L63.2995 27.94C64.1795 24.04 64.1795 21.26 64.1795 19.12V17.54ZM64.7195 22.06V24.5L53.4795 25.08L53.0795 22.36L64.7195 22.06ZM57.5195 26.08H60.7595V31.32H57.5195V26.08ZM71.518 24.6H84.878V27.14H71.518V24.6ZM69.638 30.18H86.618V32.8H69.638V30.18ZM71.518 17.56H84.758V20.16H74.718V25.64H71.518V17.56ZM91.3867 25.18H108.367V27.74H91.3867V25.18ZM98.2267 23H101.447V25.64H98.2267V23ZM93.2667 28.72H106.347V34.9H103.127V31.24H93.2667V28.72ZM93.5067 16.62H96.6867V18.02H103.047V16.62H106.247V23.98H93.5067V16.62ZM96.6867 20.4V21.48H103.047V20.4H96.6867ZM113.205 17.48H115.805V19.86C115.805 24.76 114.525 29.3 110.665 31.12L108.745 28.52C112.145 26.98 113.205 23.38 113.205 19.86V17.48ZM113.865 17.48H116.445V19.86C116.445 23.26 117.345 26.68 120.545 28.22L118.605 30.8C114.985 28.98 113.865 24.62 113.865 19.86V17.48ZM120.805 16.14H124.045V34.9H120.805V16.14ZM123.345 23.14H126.565V25.8H123.345V23.14ZM138.644 16.14H141.864V34.9H138.644V16.14ZM141.144 23.24H144.364V25.9H141.144V23.24ZM126.904 18.78H137.764V21.32H126.904V18.78ZM132.344 22.12C135.124 22.12 137.204 24.02 137.204 26.68C137.204 29.34 135.124 31.24 132.344 31.24C129.564 31.24 127.484 29.34 127.484 26.68C127.484 24.02 129.564 22.12 132.344 22.12ZM132.344 24.72C131.304 24.72 130.564 25.38 130.564 26.68C130.564 27.98 131.304 28.64 132.344 28.64C133.384 28.64 134.124 27.98 134.124 26.68C134.124 25.38 133.384 24.72 132.344 24.72ZM130.724 16.48H133.964V19.7H130.724V16.48ZM157.322 16.12H160.562V34.88H157.322V16.12ZM151.762 18.02H154.962C154.962 23.94 153.302 28.6 146.422 31.9L144.742 29.36C150.122 26.78 151.762 23.68 151.762 18.62V18.02ZM145.822 18.02H153.322V20.56H145.822V18.02Z" fill="#F3F3F3"/>
</svg>
