<svg width="202" height="43" viewBox="0 0 202 43" fill="none" xmlns="http://www.w3.org/2000/svg">
<rect width="202" height="43" rx="20" fill="#606060"/>
<path d="M47.8795 15.54H59.6595V18.1H47.8795V15.54ZM46.0195 28.38H62.9995V30.96H46.0195V28.38ZM58.3795 15.54H61.5795V17.12C61.5795 19.36 61.5995 22.06 60.6795 26.28L57.4995 25.94C58.3795 22.04 58.3795 19.26 58.3795 17.12V15.54ZM58.9195 20.06V22.5L47.6795 23.08L47.2795 20.36L58.9195 20.06ZM51.7195 24.08H54.9595V29.32H51.7195V24.08ZM65.718 22.6H79.078V25.14H65.718V22.6ZM63.838 28.18H80.818V30.8H63.838V28.18ZM65.718 15.56H78.958V18.16H68.918V23.64H65.718V15.56ZM98.0667 14.14H101.307V24.22H98.0667V14.14ZM88.6267 24.98H91.8067V26.44H98.1067V24.98H101.307V32.72H88.6267V24.98ZM91.8067 28.88V30.16H98.1067V28.88H91.8067ZM91.0067 14.84C93.9667 14.84 96.2267 16.72 96.2267 19.32C96.2267 21.94 93.9667 23.82 91.0067 23.82C88.0467 23.82 85.7867 21.94 85.7867 19.32C85.7867 16.72 88.0467 14.84 91.0067 14.84ZM91.0067 17.48C89.8067 17.48 88.9467 18.12 88.9467 19.32C88.9467 20.56 89.8067 21.16 91.0067 21.16C92.2067 21.16 93.0667 20.56 93.0667 19.32C93.0667 18.12 92.2067 17.48 91.0067 17.48ZM104.065 22.86H105.545C108.925 22.86 110.745 22.8 112.805 22.42L113.125 24.96C111.005 25.36 109.045 25.42 105.545 25.42H104.065V22.86ZM104.045 15.16H112.385V21.4H107.265V24.6H104.065V19.04H109.185V17.7H104.045V15.16ZM116.005 14.14H119.245V25.72H116.005V14.14ZM113.365 16.62H116.565V19.18H113.365V16.62ZM113.365 20.68H116.565V23.22H113.365V20.68ZM106.225 26.48H119.245V32.9H116.005V29.02H106.225V26.48ZM132.844 14.14H136.064V32.9H132.844V14.14ZM135.344 21.24H138.564V23.9H135.344V21.24ZM121.104 16.78H131.964V19.32H121.104V16.78ZM126.544 20.12C129.324 20.12 131.404 22.02 131.404 24.68C131.404 27.34 129.324 29.24 126.544 29.24C123.764 29.24 121.684 27.34 121.684 24.68C121.684 22.02 123.764 20.12 126.544 20.12ZM126.544 22.72C125.504 22.72 124.764 23.38 124.764 24.68C124.764 25.98 125.504 26.64 126.544 26.64C127.584 26.64 128.324 25.98 128.324 24.68C128.324 23.38 127.584 22.72 126.544 22.72ZM124.924 14.48H128.164V17.7H124.924V14.48ZM151.522 14.12H154.762V32.88H151.522V14.12ZM145.962 16.02H149.162C149.162 21.94 147.502 26.6 140.622 29.9L138.942 27.36C144.322 24.78 145.962 21.68 145.962 16.62V16.02ZM140.022 16.02H147.522V18.56H140.022V16.02Z" fill="white"/>
</svg>
