<svg width="202" height="43" viewBox="0 0 202 43" fill="none" xmlns="http://www.w3.org/2000/svg">
<rect width="202" height="43" rx="20" fill="#606060"/>
<path d="M56.6188 14.7H68.3988V17.24H56.6188V14.7ZM54.9388 27H71.9188V29.6H54.9388V27ZM66.7188 14.7H69.9388V17.12C69.9388 19.88 69.9388 22.38 69.2788 26.12L66.0588 25.86C66.7188 22.38 66.7188 19.78 66.7188 17.12V14.7ZM72.7372 22.1H89.7172V24.58H72.7372V22.1ZM79.5772 22.94H82.7972V25.78H79.5772V22.94ZM74.7572 25.18H77.9372V26.36H84.6172V25.18H87.7972V31.72H74.7572V25.18ZM77.9372 28.66V29.32H84.6172V28.66H77.9372ZM74.7772 13.34H87.7172V18.5H77.9772V20.48H74.7972V16.28H84.5372V15.72H74.7772V13.34ZM74.7972 19.12H88.0572V21.48H74.7972V19.12ZM94.9059 14.58H104.026V23.86H94.9059V14.58ZM100.846 17.12H98.0859V21.32H100.846V17.12ZM106.146 13.14H109.366V26.78H106.146V13.14ZM108.486 18.38H111.706V21.02H108.486V18.38ZM97.0459 29.06H109.946V31.62H97.0459V29.06ZM97.0459 25.42H100.286V30.4H97.0459V25.42ZM112.324 20.1H129.304V22.62H112.324V20.1ZM114.324 16.86H127.304V19.36H114.324V16.86ZM114.324 13.34H127.164V15.88H117.524V19.08H114.324V13.34ZM114.164 23.36H127.264V28.64H117.364V29.84H114.184V26.4H124.084V25.76H114.164V23.36ZM114.184 29.34H127.724V31.78H114.184V29.34ZM142.623 13.12H145.863V31.88H142.623V13.12ZM137.063 15.02H140.263C140.263 20.94 138.603 25.6 131.723 28.9L130.043 26.36C135.423 23.78 137.063 20.68 137.063 15.62V15.02ZM131.123 15.02H138.623V17.56H131.123V15.02Z" fill="white"/>
</svg>
