<svg width="202" height="43" viewBox="0 0 202 43" fill="none" xmlns="http://www.w3.org/2000/svg">
<rect width="202" height="43" rx="20" fill="#606060"/>
<path d="M76.7223 27.36H93.7023V29.96H76.7223V27.36ZM83.5823 24.06H86.8023V28.4H83.5823V24.06ZM78.5623 14.24H91.9023V20.8H81.7823V23.62H78.5823V18.3H88.7023V16.78H78.5623V14.24ZM78.5823 22.38H92.3223V24.94H78.5823V22.38ZM96.2008 14.7H107.981V17.24H96.2008V14.7ZM94.5208 27H111.501V29.6H94.5208V27ZM106.301 14.7H109.521V17.12C109.521 19.88 109.521 22.38 108.861 26.12L105.641 25.86C106.301 22.38 106.301 19.78 106.301 17.12V14.7ZM124.779 13.14H128.019V26.5H124.779V13.14ZM115.279 29.06H128.439V31.62H115.279V29.06ZM115.279 25.18H118.499V30.16H115.279V25.18ZM117.719 14.26C120.639 14.26 122.939 16.28 122.939 19.1C122.939 21.88 120.639 23.94 117.719 23.94C114.799 23.94 112.499 21.88 112.499 19.1C112.499 16.28 114.799 14.26 117.719 14.26ZM117.719 17.04C116.559 17.04 115.659 17.72 115.659 19.1C115.659 20.44 116.559 21.14 117.719 21.14C118.879 21.14 119.779 20.44 119.779 19.1C119.779 17.72 118.879 17.04 117.719 17.04Z" fill="white"/>
</svg>
