<svg width="202" height="43" viewBox="0 0 202 43" fill="none" xmlns="http://www.w3.org/2000/svg">
<rect width="202" height="43" rx="20" fill="#606060"/>
<path d="M72.2431 24.62H75.4631V27.64H72.2431V24.62ZM80.4431 13.14H83.6631V31.9H80.4431V13.14ZM68.2631 29.02L67.9031 26.44C71.2231 26.44 75.7031 26.44 79.6031 25.92L79.8231 28.22C75.7831 29 71.5231 29.02 68.2631 29.02ZM68.2431 15.08H79.4831V17.58H68.2431V15.08ZM73.8631 18.14C76.6631 18.14 78.6431 19.58 78.6431 21.68C78.6431 23.78 76.6631 25.24 73.8631 25.24C71.0831 25.24 69.1031 23.78 69.1031 21.68C69.1031 19.58 71.0831 18.14 73.8631 18.14ZM73.8631 20.54C72.8831 20.54 72.1831 20.9 72.1831 21.68C72.1831 22.48 72.8831 22.84 73.8631 22.84C74.8631 22.84 75.5631 22.48 75.5631 21.68C75.5631 20.9 74.8631 20.54 73.8631 20.54ZM72.2431 13.24H75.4831V16.54H72.2431V13.24ZM90.2616 22.86H93.4816V26.92H90.2616V22.86ZM98.4216 13.12H101.642V27.3H98.4216V13.12ZM87.7416 29.06H102.042V31.62H87.7416V29.06ZM87.7416 25.98H90.9616V29.74H87.7416V25.98ZM85.9416 23.76L85.5616 21.22C88.9616 21.2 93.5016 21.16 97.4016 20.66L97.6016 22.94C93.6216 23.64 89.3016 23.74 85.9416 23.76ZM95.0416 23.92H99.1016V26.08H95.0416V23.92ZM91.5616 13.7C94.3016 13.7 96.2616 15.1 96.2616 17.1C96.2616 19.12 94.3016 20.48 91.5616 20.48C88.8016 20.48 86.8416 19.12 86.8416 17.1C86.8416 15.1 88.8016 13.7 91.5616 13.7ZM91.5616 16.04C90.5816 16.04 89.9016 16.34 89.9016 17.1C89.9016 17.84 90.5816 18.16 91.5616 18.16C92.5416 18.16 93.2016 17.84 93.2016 17.1C93.2016 16.34 92.5416 16.04 91.5616 16.04ZM115.02 13.1H118.26V31.86H115.02V13.1ZM117.44 20.04H120.66V22.68H117.44V20.04ZM110.02 15H113.18C113.18 20.8 111.2 25.62 104.86 28.82L103.06 26.38C107.84 23.88 110.02 20.72 110.02 15.58V15ZM104.18 15H111.68V17.58H104.18V15ZM133.678 13.14H136.918V23.22H133.678V13.14ZM124.238 23.98H127.418V25.44H133.718V23.98H136.918V31.72H124.238V23.98ZM127.418 27.88V29.16H133.718V27.88H127.418ZM126.618 13.84C129.578 13.84 131.838 15.72 131.838 18.32C131.838 20.94 129.578 22.82 126.618 22.82C123.658 22.82 121.398 20.94 121.398 18.32C121.398 15.72 123.658 13.84 126.618 13.84ZM126.618 16.48C125.418 16.48 124.558 17.12 124.558 18.32C124.558 19.56 125.418 20.16 126.618 20.16C127.818 20.16 128.678 19.56 128.678 18.32C128.678 17.12 127.818 16.48 126.618 16.48Z" fill="white"/>
</svg>
